<?xml version="1.0" encoding="UTF-8" standalone="no"?>
<!-- Created with Inkscape (http://www.inkscape.org/) -->
<svg
   xmlns:dc="http://purl.org/dc/elements/1.1/"
   xmlns:cc="http://web.resource.org/cc/"
   xmlns:rdf="http://www.w3.org/1999/02/22-rdf-syntax-ns#"
   xmlns:svg="http://www.w3.org/2000/svg"
   xmlns="http://www.w3.org/2000/svg"
   xmlns:xlink="http://www.w3.org/1999/xlink"
   xmlns:sodipodi="http://sodipodi.sourceforge.net/DTD/sodipodi-0.dtd"
   xmlns:inkscape="http://www.inkscape.org/namespaces/inkscape"
   id="svg2"
   sodipodi:version="0.32"
   inkscape:version="0.45"
   width="875"
   height="833"
   version="1.0"
   sodipodi:docbase="/home/asereje/wikipedia/graficos"
   sodipodi:docname="Jordens_inre-numbers.svg"
   inkscape:output_extension="org.inkscape.output.svg.inkscape"
   sodipodi:modified="true">
  <metadata
     id="metadata7">
    <rdf:RDF>
      <cc:Work
         rdf:about="">
        <dc:format>image/svg+xml</dc:format>
        <dc:type
           rdf:resource="http://purl.org/dc/dcmitype/StillImage" />
      </cc:Work>
    </rdf:RDF>
  </metadata>
  <defs
     id="defs5">
    <linearGradient
       id="linearGradient3088">
      <stop
         style="stop-color:#27dceb;stop-opacity:1;"
         offset="0"
         id="stop3090" />
      <stop
         style="stop-color:#3084a9;stop-opacity:1;"
         offset="1"
         id="stop3092" />
    </linearGradient>
    <linearGradient
       id="linearGradient3048">
      <stop
         style="stop-color:#fefa98;stop-opacity:1;"
         offset="0"
         id="stop3050" />
      <stop
         style="stop-color:#dcc14e;stop-opacity:1;"
         offset="1"
         id="stop3052" />
    </linearGradient>
    <linearGradient
       id="linearGradient3039">
      <stop
         style="stop-color:#fae072;stop-opacity:1;"
         offset="0"
         id="stop3041" />
      <stop
         style="stop-color:#fae072;stop-opacity:0;"
         offset="1"
         id="stop3043" />
    </linearGradient>
    <linearGradient
       id="linearGradient2987">
      <stop
         style="stop-color:#fae072;stop-opacity:1;"
         offset="0"
         id="stop2989" />
      <stop
         style="stop-color:#fdf98b;stop-opacity:1;"
         offset="1"
         id="stop2991" />
    </linearGradient>
    <linearGradient
       id="linearGradient2971">
      <stop
         style="stop-color:#fdf98b;stop-opacity:1;"
         offset="0"
         id="stop2973" />
      <stop
         style="stop-color:#fae072;stop-opacity:1;"
         offset="1"
         id="stop2975" />
    </linearGradient>
    <linearGradient
       id="linearGradient2930">
      <stop
         style="stop-color:#fceba4;stop-opacity:1;"
         offset="0"
         id="stop2932" />
      <stop
         style="stop-color:#bc610e;stop-opacity:1;"
         offset="1"
         id="stop2934" />
    </linearGradient>
    <linearGradient
       inkscape:collect="always"
       id="linearGradient2902">
      <stop
         style="stop-color:#fae072;stop-opacity:1;"
         offset="0"
         id="stop2904" />
      <stop
         style="stop-color:#fae072;stop-opacity:0;"
         offset="1"
         id="stop2906" />
    </linearGradient>
    <radialGradient
       inkscape:collect="always"
       xlink:href="#linearGradient2902"
       id="radialGradient2908"
       cx="448.91785"
       cy="341.34399"
       fx="448.91785"
       fy="341.34399"
       r="221.73511"
       gradientTransform="matrix(1,0,0,0.873108,-39.59798,43.31373)"
       gradientUnits="userSpaceOnUse" />
    <radialGradient
       inkscape:collect="always"
       xlink:href="#linearGradient2971"
       id="radialGradient3029"
       cx="404.88635"
       cy="361.0209"
       fx="404.88635"
       fy="361.0209"
       r="126.96875"
       gradientTransform="matrix(-0.22836,1.027085,-1.295352,-0.287996,930.91662,108.9949)"
       gradientUnits="userSpaceOnUse" />
    <radialGradient
       inkscape:collect="always"
       xlink:href="#linearGradient2971"
       id="radialGradient3037"
       cx="410.84375"
       cy="404.79163"
       fx="410.84375"
       fy="404.79163"
       r="82.119598"
       gradientTransform="matrix(2.586433,-1.376281e-6,1.591106e-6,2.11172,-691.37448,-434.9549)"
       gradientUnits="userSpaceOnUse" />
    <radialGradient
       inkscape:collect="always"
       xlink:href="#linearGradient3048"
       id="radialGradient3066"
       cx="413.4375"
       cy="386.61575"
       fx="413.4375"
       fy="386.61575"
       r="46.21875"
       gradientTransform="matrix(2.225514,-5.79056e-3,1.080524e-2,4.152925,-550.44958,-1182.15)"
       gradientUnits="userSpaceOnUse" />
    <radialGradient
       inkscape:collect="always"
       xlink:href="#linearGradient2930"
       id="radialGradient3084"
       cx="383.12738"
       cy="373.45987"
       fx="383.12738"
       fy="373.45987"
       r="92.942276"
       gradientTransform="matrix(-1.914552,3.403904e-2,-5.298013e-2,-2.979907,1119.737,1521.21)"
       gradientUnits="userSpaceOnUse" />
    <radialGradient
       inkscape:collect="always"
       xlink:href="#linearGradient3088"
       id="radialGradient3102"
       cx="112.59375"
       cy="348.16528"
       fx="112.59375"
       fy="348.16528"
       r="342.96875"
       gradientTransform="matrix(0.991893,1.140955,-1.149465,0.999291,361.51842,-128.2149)"
       gradientUnits="userSpaceOnUse" />
  </defs>
  <sodipodi:namedview
     inkscape:window-height="767"
     inkscape:window-width="1278"
     inkscape:pageshadow="2"
     inkscape:pageopacity="0.0"
     guidetolerance="10.0"
     gridtolerance="10.0"
     objecttolerance="10.0"
     borderopacity="1.0"
     bordercolor="#666666"
     pagecolor="#ffffff"
     id="base"
     inkscape:zoom="0.70710678"
     inkscape:cx="524.34833"
     inkscape:cy="441.2958"
     inkscape:window-x="2"
     inkscape:window-y="0"
     inkscape:current-layer="svg2"
     showguides="true"
     inkscape:guide-bbox="true"
     width="875px"
     height="833px">
    <sodipodi:guide
       orientation="vertical"
       position="-97.580736"
       id="guide3331" />
  </sodipodi:namedview>
  <path
     style="fill:url(#radialGradient3102);fill-opacity:1;fill-rule:nonzero;stroke:none;stroke-width:2;stroke-miterlimit:4;stroke-dasharray:none;stroke-dashoffset:0;stroke-opacity:1"
     d="M 362.55827,79.21875 C 175.27969,81.593618 24.027021,234.31755 24.02702,422.15625 C 24.02702,611.47399 177.67804,765.12499 366.99577,765.125 C 556.31351,765.125 709.96453,611.47398 709.96452,422.15625 L 709.96452,421.96875 C 709.85625,232.71999 556.24456,79.218748 366.99577,79.21875 C 365.51673,79.21875 364.0329,79.20005 362.55827,79.21875 z M 374.21452,104.0625 C 390.61575,106.34572 442.1959,123.77984 492.83952,156.3125 C 546.22607,190.60718 589.71947,239.74517 616.58952,285 C 643.4596,330.25483 654.79174,361.35056 663.27702,407.3125 C 670.78823,447.9982 671.64679,479.17016 671.74577,485.8125 C 671.75861,486.6739 671.74577,487.21875 671.74577,487.21875 L 671.05827,487.15625 C 668.47845,491.12081 656.51051,503.64923 603.15202,520.46875 C 538.09819,540.97485 465.49687,554.39461 403.05827,553.6875 C 319.62168,552.77192 213.67986,550.0481 122.33952,508.4375 C 58.699918,479.44612 52.33952,464.59375 52.33952,464.59375 C 52.33952,464.59374 63.32712,386.60366 74.12077,356.4375 C 85.64159,324.23903 149.27445,184.28697 279.30827,134.375 C 335.38103,112.85213 364.51441,106.13017 373.77702,104.375 L 374.21452,104.0625 z "
     id="path2427"
     sodipodi:nodetypes="cssccsccssssccscscsscc" />
  <path
     sodipodi:nodetypes="csccsccssccc"
     id="path2842"
     d="M 321.45584,175.52903 C 235.2845,224.81725 181.06887,342.65003 166.13266,395.69798 C 154.88711,435.63806 150.24597,478.78512 151.13814,493.85261 C 189.41885,518.41143 313.38798,532.63876 377.30693,534.3915 C 436.43942,535.06116 494.12274,530.61004 555.73199,511.18973 C 606.26516,495.2608 626.68611,481.35783 629.12932,477.60319 C 630.03177,477.3904 629.78448,477.6028 629.78042,476.33059 C 629.68668,470.03996 633.22191,462.07253 626.10841,423.54113 C 618.07243,380.01286 608.34728,350.4493 583.30722,307.3515 C 548.48462,247.41643 509.76603,215.24665 466.31355,187.00451 C 434.34216,168.86095 409.40681,153.99577 373.78097,148.19298 C 348.50666,157.84662 345.02765,160.37006 321.45584,175.52903 z "
     style="fill:#faac52;fill-opacity:1;fill-rule:evenodd;stroke:none;stroke-width:0.94705021px;stroke-linecap:butt;stroke-linejoin:miter;stroke-opacity:1" />
  <path
     style="fill:url(#radialGradient3084);fill-opacity:1;fill-rule:evenodd;stroke:none;stroke-width:0.94705021px;stroke-linecap:butt;stroke-linejoin:miter;stroke-opacity:1"
     d="M 188.96452,507.125 L 189.40202,508 L 254.80827,474.40625 C 258.30727,393.59134 290.45068,311.0727 352.90202,259 C 362.95347,252.08963 367.60353,249.21279 369.83952,247.96875 L 371.40202,247 L 371.80827,247 C 372.1225,247.02438 372.11235,247.07106 372.37077,247.09375 L 373.90202,165 L 373.68327,148.875 L 373.65202,148.75 C 373.65202,148.75 371.58728,149.84611 368.02702,151.96875 C 364.46676,154.09139 359.40023,157.23314 353.40202,161.34375 C 350.40291,163.39906 347.17518,165.6917 343.77702,168.21875 C 340.37886,170.7458 336.80894,173.51804 333.15202,176.5 C 329.4951,179.48196 325.77116,182.67372 321.99577,186.09375 C 318.22038,189.51378 314.4056,193.15873 310.65202,197 C 305.11173,202.66973 299.82195,208.44585 294.71452,214.46875 C 289.60709,220.49165 284.6781,226.75582 279.80827,233.40625 C 274.93844,240.05668 270.13575,247.10394 265.30827,254.65625 C 260.48079,262.20856 255.63241,270.27145 250.65202,279 C 248.14344,283.39649 245.50046,288.54928 242.77702,294.28125 C 240.05358,300.01322 237.24738,306.31824 234.43327,313.03125 C 231.61916,319.74426 228.8076,326.87912 226.02702,334.21875 C 223.24644,341.55838 220.49363,349.10693 217.87077,356.71875 C 215.24791,364.33057 212.74296,372.00168 210.40202,379.53125 C 208.06108,387.06082 205.89934,394.43836 203.96452,401.53125 C 202.0297,408.62414 200.30653,415.41696 198.90202,421.71875 C 197.49751,428.02054 196.40202,433.84375 195.65202,439 C 194.25586,448.59858 193.14036,457.73933 192.24577,466.03125 C 191.35118,474.32317 190.67798,481.77465 190.18327,488.03125 C 189.24888,499.84855 188.99636,506.32406 188.96452,507.125 z "
     id="path2870" />
  <path
     style="fill:#da551a;fill-opacity:1;fill-rule:evenodd;stroke:none;stroke-width:1px;stroke-linecap:butt;stroke-linejoin:miter;stroke-opacity:1"
     d="M 122.24577,501.90625 L 122.15202,502.375 C 211.70786,541.99321 313.49038,547.94936 394.99577,548.84375 C 457.43438,549.55086 531.03569,538.1311 596.08952,517.625 C 649.44798,500.80548 657.8847,487.58956 660.46452,483.625 L 661.15202,483.6875 C 661.15205,483.68749 661.16486,483.14265 661.15202,482.28125 C 661.05307,475.6389 663.72573,457.1857 656.21452,416.5 C 647.72921,370.53807 635.96708,339.69491 609.52702,294.1875 C 572.75745,230.90146 534.47144,193.19617 488.58952,163.375 C 454.90462,144.25904 411.89873,120.22509 374.33952,114.03033 L 368.37077,150.34375 C 370.26665,149.59889 371.57878,149.02713 373.77702,148.1875 C 409.40286,153.99029 434.33688,168.85643 466.30827,187 C 509.76075,215.24214 548.48566,247.40868 583.30827,307.34375 C 608.34833,350.44155 618.08482,380.00297 626.12077,423.53125 C 633.23427,462.06265 629.68326,470.05311 629.77702,476.34375 C 629.78108,477.61596 630.02323,477.38097 629.12077,477.59375 C 626.67756,481.34839 606.27895,495.25857 555.74577,511.1875 C 494.13652,530.60781 436.44076,535.07593 377.30827,534.40625 C 313.38932,532.65351 189.43274,518.40258 151.15202,493.84375 C 151.14595,493.74121 151.15758,493.51139 151.15202,493.40625 L 122.24577,501.90625 z "
     id="path2860"
     sodipodi:nodetypes="cccsccssscccccssccscccc" />
  <path
     style="fill:#f09542;fill-opacity:1;fill-rule:evenodd;stroke:none;stroke-width:0.94705021px;stroke-linecap:butt;stroke-linejoin:miter;stroke-opacity:1"
     d="M 188.05827,508.6875 L 188.90202,508.25 C 188.90202,508.25 189.19385,500.54446 190.18327,488.03125 C 190.67798,481.77465 191.35118,474.32317 192.24577,466.03125 C 193.14036,457.73933 194.25586,448.59858 195.65202,439 C 196.40202,433.84375 197.49751,428.02054 198.90202,421.71875 C 200.30653,415.41696 202.0297,408.62414 203.96452,401.53125 C 205.89934,394.43836 208.06108,387.06082 210.40202,379.53125 C 212.74296,372.00168 215.24791,364.33057 217.87077,356.71875 C 220.49363,349.10693 223.24644,341.55838 226.02702,334.21875 C 228.8076,326.87912 231.61916,319.74426 234.43327,313.03125 C 237.24738,306.31824 240.05358,300.01322 242.77702,294.28125 C 245.50046,288.54928 248.14344,283.39649 250.65202,279 C 255.63241,270.27145 260.48079,262.20856 265.30827,254.65625 C 270.13575,247.10394 274.93844,240.05668 279.80827,233.40625 C 284.6781,226.75582 289.60709,220.49165 294.71452,214.46875 C 299.82195,208.44585 305.11173,202.66973 310.65202,197 C 314.4056,193.15873 318.22038,189.51378 321.99577,186.09375 C 325.77116,182.67372 329.4951,179.48196 333.15202,176.5 C 336.80894,173.51804 340.37886,170.7458 343.77702,168.21875 C 347.17518,165.6917 350.40291,163.39906 353.40202,161.34375 C 359.40023,157.23314 364.46676,154.09139 368.02702,151.96875 C 371.58728,149.84611 373.65202,148.75 373.65202,148.75 L 373.90202,150.5 L 373.90202,148.21875 C 373.85851,148.21163 373.82056,148.19459 373.77702,148.1875 C 348.50272,157.84114 345.03633,160.37228 321.46452,175.53125 C 235.29317,224.81946 181.05698,342.63955 166.12077,395.6875 C 154.87522,435.62759 150.25985,478.77626 151.15202,493.84375 C 159.68525,499.31821 172.62363,504.26352 188.05827,508.6875 z "
     id="path3335" />
  <path
     style="fill:url(#radialGradient2908);fill-opacity:1;fill-rule:evenodd;stroke:none;stroke-width:0.94705021px;stroke-linecap:butt;stroke-linejoin:miter;stroke-opacity:1"
     d="M 373.90202,148.21875 L 373.90202,150.5 L 373.68327,148.875 L 373.90202,165 L 372.37077,247.09375 C 375.92207,247.40555 375.00655,247.59235 383.24577,249.5 C 383.97093,250.25778 395.10795,251.57234 424.62077,268.375 C 453.86739,285.02611 482.94862,310.81071 503.80827,345.8125 C 524.66792,380.81427 532.103,420.40075 533.87077,435.25 C 535.44477,448.47173 534.94451,454.86209 534.80827,456.3125 L 629.77702,476.96875 C 629.77054,476.80564 629.77825,476.72927 629.77702,476.34375 C 629.68326,470.05311 633.23427,462.06265 626.12077,423.53125 C 618.08482,380.00297 608.34833,350.44155 583.30827,307.34375 C 548.48566,247.40868 509.76075,215.24214 466.30827,187 C 434.37595,168.87861 409.45825,154.03656 373.90202,148.21875 z "
     id="path2900" />
  <path
     style="fill:#faae53;fill-opacity:1;fill-rule:evenodd;stroke:none;stroke-width:0.94705021px;stroke-linecap:butt;stroke-linejoin:miter;stroke-opacity:1"
     d="M 629.77702,476.96875 L 534.80827,456.3125 C 534.7915,456.49104 534.74577,457.53125 534.74577,457.53125 C 501.15821,477.33023 476.23776,485.44486 441.58952,489.6875 C 406.94129,493.93015 367.68017,494.64092 341.87077,491.8125 C 316.06138,488.98407 289.55771,485.79897 281.83952,483.15625 C 281.85301,482.95295 281.85718,482.76509 281.87077,482.5625 C 280.28058,482.10193 272.38239,480.64041 254.80827,474.59375 C 254.81093,474.53162 254.80558,474.46839 254.80827,474.40625 L 189.40202,508 L 188.96452,507.125 C 188.96264,507.17217 188.90202,508.25 188.90202,508.25 L 188.05827,508.6875 C 241.86458,524.10983 327.63762,533.04422 377.30827,534.40625 C 436.44076,535.07593 494.13652,530.60781 555.74577,511.1875 C 606.27895,495.25857 626.67756,481.34839 629.12077,477.59375 C 629.74976,477.44545 629.79193,477.34391 629.77702,476.96875 z "
     id="path2969" />
  <path
     sodipodi:nodetypes="ccccccccsc"
     d="M 371.40202,247 L 371.40202,247 L 371.40202,247 L 371.40202,247 L 371.90202,247 C 371.90202,247 370.85214,246.65929 352.90202,259 C 290.40266,311.11274 258.27624,393.72759 254.81862,474.60199 C 275.06454,481.56793 282.48916,482.45181 282.19559,482.72591 C 285.40202,429.5 292.48321,400.52663 301.40202,368.5 C 323.40202,289.5 371.90202,246 371.90202,246"
     style="fill:#fae072;fill-opacity:1;fill-rule:evenodd;stroke:none;stroke-width:1px;stroke-linecap:butt;stroke-linejoin:miter;stroke-opacity:1"
     id="path2882" />
  <path
     id="path3366"
     style="fill:#fae072;fill-opacity:1;fill-rule:evenodd;stroke:none;stroke-width:1px;stroke-linecap:butt;stroke-linejoin:miter;stroke-opacity:1"
     d="M 371.40202,247 L 371.40202,247 L 371.40202,247 L 371.40202,247 L 371.90202,247 C 371.90202,247 370.85214,246.65929 352.90202,259 C 290.40266,311.11274 258.27624,393.72759 254.81862,474.60199 C 275.06454,481.56793 282.48916,482.45181 282.19559,482.72591 C 285.40202,429.5 292.48321,400.52663 301.40202,368.5 C 323.40202,289.5 371.90202,246 371.90202,246"
     sodipodi:nodetypes="ccccccccsc" />
  <path
     style="fill:#a44821;fill-opacity:1;fill-rule:evenodd;stroke:none;stroke-width:2;stroke-linecap:butt;stroke-linejoin:miter;stroke-miterlimit:4;stroke-dasharray:none;stroke-opacity:1"
     d="M 659.90202,484.34375 C 656.93,488.83511 647.38293,501.45642 596.08952,517.625 C 531.03569,538.1311 457.43438,549.55086 394.99577,548.84375 C 311.55918,547.92817 206.8415,541.80467 115.77702,499.59375 C 98.44461,491.55969 91.0132,485.29936 89.90202,484.34375 L 79.58952,486.3125 C 89.74867,492.44936 103.22759,499.73095 122.33952,508.4375 C 213.67986,550.0481 319.62168,552.77192 403.05827,553.6875 C 465.49687,554.39461 538.09819,540.97485 603.15202,520.46875 C 656.51051,503.64923 668.47845,491.12081 671.05827,487.15625 L 671.74577,487.21875 C 671.74577,487.21875 671.74505,486.97926 671.74577,486.9375 L 659.90202,484.34375 z "
     id="path2835" />
  <path
     style="fill:none;fill-opacity:1;fill-rule:evenodd;stroke:none;stroke-width:1;stroke-linecap:butt;stroke-linejoin:miter;stroke-miterlimit:4;stroke-dasharray:none;stroke-opacity:1"
     d="M 374.21452,104.0625 L 373.77702,104.375 C 364.51441,106.13017 335.38103,112.85213 279.30827,134.375 C 149.27445,184.28697 85.64159,324.23903 74.12077,356.4375 C 63.32712,386.60366 52.33952,464.59374 52.33952,464.59375 C 52.33952,464.59375 58.699918,479.44612 122.33952,508.4375 C 213.67986,550.0481 319.62168,552.77192 403.05827,553.6875 C 465.49687,554.39461 538.09819,540.97485 603.15202,520.46875 C 656.51051,503.64923 668.47845,491.12081 671.05827,487.15625 L 671.74577,487.21875 C 671.74577,487.21875 671.75861,486.6739 671.74577,485.8125 C 671.64679,479.17016 670.78823,447.9982 663.27702,407.3125 C 654.79174,361.35056 643.4596,330.25483 616.58952,285 C 589.71947,239.74517 546.22607,190.60718 492.83952,156.3125 C 442.1959,123.77984 390.61575,106.34572 374.21452,104.0625 z "
     id="path1909" />
  <path
     style="fill:#8e2600;fill-opacity:1;fill-rule:evenodd;stroke:none;stroke-width:2;stroke-linecap:butt;stroke-linejoin:miter;stroke-miterlimit:4;stroke-dasharray:none;stroke-opacity:1"
     d="M 79.58952,486.3125 L 89.90202,484.34375 C 89.81444,484.26843 88.96452,483.65625 88.96452,483.65625 C 85.78254,467.74634 94.05897,422.92313 105.93327,380.75 C 121.70457,324.73613 180.82479,207.03386 280.02702,152.75 C 308.27663,137.86345 342.92228,121.39095 374.08952,113.4375 C 374.27409,113.46756 374.46719,113.53155 374.65202,113.5625 L 374.80827,104.1875 C 374.64382,104.1627 374.37247,104.08449 374.21452,104.0625 L 373.77702,104.375 C 364.51441,106.13017 335.38103,112.85213 279.30827,134.375 C 149.27445,184.28697 85.64159,324.23903 74.12077,356.4375 C 63.32712,386.60366 52.33952,464.59374 52.33952,464.59375 C 52.33952,464.59375 55.920358,472.01463 79.58952,486.3125 z "
     id="path2810" />
  <path
     style="fill:#cb6e4d;fill-opacity:1;fill-rule:evenodd;stroke:none;stroke-width:1px;stroke-linecap:butt;stroke-linejoin:miter;stroke-opacity:1"
     d="M 374.21452,104.0625 L 373.77702,104.375 C 364.51441,106.13017 335.38103,112.85213 279.30827,134.375 C 149.27445,184.28697 85.5558,326.34258 73.53498,356.04105 C 61.51417,385.73954 53.753734,464.94729 53.753734,464.9473 C 53.753734,464.9473 55.867564,472.75807 83.65202,488.8125 C 82.354,487.1001 81.77702,486.03125 81.77702,486.03125 C 79.84504,470.62134 86.446,420.45909 99.46452,378.625 C 121.48582,307.86113 177.41064,208.90193 273.55827,149.375 C 305.92887,130.85125 339.47717,116.20113 374.77702,104.65625 C 376.69843,105.01104 379.51463,105.42763 382.96452,105.90625 C 379.46909,105.01818 376.47185,104.37674 374.21452,104.0625 z "
     id="path3320"
     sodipodi:nodetypes="ccsscccscccc" />
  <path
     style="fill:#516c1b;fill-opacity:1;fill-rule:evenodd;stroke:none;stroke-width:1px;stroke-linecap:butt;stroke-linejoin:miter;stroke-opacity:1"
     d="M 163.21452,524.3125 L 162.83952,525.90625 L 160.18327,525.90625 L 159.15202,534.625 C 159.15202,534.625 165.21991,535.16706 166.27702,537.28125 C 167.33413,539.39546 162.83952,540.71875 162.83952,540.71875 C 162.83952,540.71875 158.08412,540.71795 157.02702,543.625 C 155.96991,546.53204 160.46452,552.06251 160.46452,552.0625 L 157.80827,552.59375 C 157.80827,552.59375 162.31905,556.28935 164.43327,557.875 C 166.54749,559.46066 181.87076,589.875 181.87077,589.875 L 185.83952,598.0625 C 185.83952,598.0625 186.87615,602.55631 187.93327,604.40625 C 188.99037,606.25618 210.68327,621.84375 210.68327,621.84375 L 213.58952,624.5 C 213.58952,624.5 217.00656,626.33139 219.12077,630.03125 C 221.23498,633.73113 222.29398,641.40004 222.55827,643.25 C 222.82254,645.09993 220.99229,647.48225 223.37077,650.125 C 225.74926,652.76776 225.46451,673.37501 225.46452,673.375 L 227.83952,674.15625 L 227.30827,676.28125 L 225.99577,679.1875 C 225.99577,679.1875 229.71452,685.80633 229.71452,687.65625 C 229.71452,689.50619 229.18327,696.90626 229.18327,696.90625 L 228.12077,699.28125 L 234.18327,706.15625 C 234.18327,706.15625 234.19754,708.52509 233.93327,710.375 C 233.669,712.22494 236.55827,712.21873 236.55827,712.21875 L 235.77702,712.5 L 236.02702,714.34375 L 239.46452,718.03125 L 238.68327,716.46875 L 237.08952,711.96875 C 237.08952,711.96875 237.89314,711.97142 239.21452,712.5 C 240.5359,713.02855 242.90201,717.49999 242.90202,717.5 L 244.49577,719.875 L 245.27702,723.0625 L 240.27702,721.46875 L 244.49577,724.90625 C 244.49577,724.90625 250.58602,728.60724 252.96452,731.25 C 255.34301,733.89277 266.18328,738.37498 266.18327,738.375 C 266.18327,738.375 268.56367,740.50268 269.62077,741.03125 C 270.67788,741.5598 270.93328,739.96876 270.93327,739.96875 L 275.68327,740.5 L 274.37077,739.1875 L 269.62077,736.53125 L 272.52702,736.53125 L 273.02702,734.15625 L 276.74577,733.09375 L 265.65202,727.8125 C 265.65202,727.8125 267.50116,725.43751 268.55827,725.4375 C 269.61538,725.4375 274.08952,726.74999 274.08952,726.75 L 271.99577,722.78125 L 276.74577,722.28125 L 278.33952,722 C 278.33952,722 275.68137,720.94908 272.24577,720.15625 C 268.81017,719.36342 269.08951,716.71876 269.08952,716.71875 L 269.08952,715.65625 L 271.99577,718.03125 L 279.37077,718.03125 L 279.12077,716.46875 C 279.12077,716.46875 277.27082,711.97417 279.12077,713.03125 C 280.97071,714.08836 294.96991,714.07948 296.02702,714.34375 C 297.08412,714.60803 301.59493,711.43213 302.65202,710.375 C 303.70913,709.3179 297.33952,707.71877 297.33952,707.71875 C 297.33952,707.71875 297.88773,705.88391 298.15202,704.5625 C 298.4163,703.24111 291.52702,702.4375 291.52702,702.4375 C 291.52702,702.4375 288.61998,698.7438 291.52702,700.59375 C 294.43407,702.44368 310.02703,704.81251 310.02702,704.8125 C 310.02702,704.8125 320.07525,699.00619 320.33952,697.15625 C 320.60379,695.30632 322.4726,692.66513 324.05827,691.34375 C 325.64393,690.02236 325.37076,691.34375 325.37077,691.34375 C 325.37077,691.34375 323.76813,696.88392 325.08952,695.5625 C 326.4109,694.24112 330.40203,688.4375 330.40202,688.4375 L 336.46452,685 L 337.77702,673.90625 L 351.52702,667.3125 C 351.52702,667.3125 355.49228,663.87502 357.87077,663.875 C 360.24926,663.875 371.62076,663.34373 371.62077,663.34375 C 371.62077,663.34375 371.36457,661.48573 373.21452,661.75 C 375.06445,662.01428 377.15473,662.54284 377.68327,661.75 C 378.21182,660.95717 378.47532,658.31057 380.58952,654.875 C 382.70374,651.4394 386.40203,650.65625 386.40202,650.65625 C 386.40202,650.65625 385.90202,648.81058 385.90202,645.375 C 385.90202,641.9394 389.05826,642.46875 389.05827,642.46875 C 389.05827,642.46875 388.79398,641.12581 389.05827,638.21875 C 389.32254,635.31171 390.65201,634.78128 390.65202,634.78125 C 390.65202,634.78125 390.36808,633.20337 389.83952,627.125 C 389.31096,621.04664 392.49577,618.15626 392.49577,618.15625 L 395.40202,619.46875 L 400.43327,613.65625 L 400.68327,609.9375 C 400.68327,609.9375 405.98688,607.55713 407.30827,606.5 C 408.62965,605.44289 414.42707,596.48381 416.27702,593.3125 C 418.12696,590.14118 414.68058,581.40088 414.15202,580.34375 C 413.62347,579.28665 411.24658,580.34377 408.33952,580.34375 C 405.43248,580.34375 404.38853,578.49732 401.74577,577.96875 C 399.103,577.4402 394.87964,571.62227 393.55827,571.09375 C 392.23689,570.5652 389.06717,568.73305 387.74577,568.46875 C 386.42439,568.20448 378.48499,569.00002 376.37077,569 C 374.25655,569 370.01624,565.54556 367.90202,565.28125 C 365.78781,565.01698 358.94485,569.25886 358.15202,567.9375 C 357.35919,566.61612 360.52703,563.96875 360.52702,563.96875 C 360.52702,563.96875 359.718,561.57409 357.33952,560.78125 C 354.96103,559.98842 355.74576,562.12497 355.74577,562.125 L 354.71452,560.53125 C 354.71452,560.53125 348.08144,557.62233 346.49577,557.09375 C 344.91011,556.56519 340.95643,555.78392 339.37077,556.3125 C 337.78511,556.84105 336.20644,559.21256 334.62077,561.0625 C 333.03511,562.91243 330.40203,563.18752 330.40202,563.1875 L 330.12077,561.0625 L 327.99577,560.90625 C 326.02797,561.21346 325.35403,561.97549 324.62077,560.65625 L 322.99577,560.53125 L 321.15202,556.5625 C 321.15202,556.5625 317.16091,558.42321 315.83952,558.6875 C 314.51814,558.95177 315.06906,555.25885 317.18327,553.9375 C 318.19942,553.3024 319.34707,552.18511 320.40202,551.21875 C 269.27934,548.18357 214.89179,541.22832 163.21452,524.3125 z M 324.62077,560.65625 L 327.99577,560.90625 C 328.39189,560.84441 328.82418,560.78125 329.33952,560.78125 C 332.77512,560.78125 336.71723,555.77043 337.24577,553.65625 C 337.43297,552.90747 337.36641,552.45717 336.96452,552.09375 C 332.62931,551.90003 328.26051,551.65255 323.87077,551.40625 C 323.99511,553.92258 323.57253,558.16063 324.30827,560 C 324.4191,560.27708 324.5176,560.47063 324.62077,560.65625 z "
     id="path1873" />
  <path
     style="fill:#516c1b;fill-opacity:1;fill-rule:evenodd;stroke:none;stroke-width:1px;stroke-linecap:butt;stroke-linejoin:miter;stroke-opacity:1"
     d="M 270.58952,98.875 C 270.31608,98.873047 269.93327,98.9375 269.40202,99.125 C 267.27702,99.874999 263.52702,101.625 262.40202,102.125 C 261.27702,102.625 261.15202,103 259.15202,104.375 C 257.15202,105.75 255.77702,106 255.77702,106 C 255.77702,106 254.52702,106.625 255.02702,105.5 C 255.52702,104.375 258.27702,104.5 259.02702,103.75 C 259.77702,103 260.77702,101.875 260.77702,101.875 C 260.77702,101.875 260.90202,101 259.40202,101 C 257.90202,101 258.02702,101.75 254.40202,102.75 C 250.77702,103.75 250.90202,102.75 249.52702,104.25 C 248.15202,105.75 246.65202,106.125 246.15202,106.875 C 245.65202,107.625 246.52702,107.875 244.15202,108.25 C 241.77702,108.625 242.77702,108.625 241.65202,108.625 C 240.52702,108.625 239.02702,109.25 240.15202,108.625 C 241.27702,108 243.27702,107.625 242.15202,107.5 C 241.02702,107.375 243.40202,106.125 238.90202,107.125 C 234.40202,108.125 231.52702,110 231.52702,110 C 231.52702,110 229.15202,110.75 226.40202,112.375 C 223.65202,114 227.02702,113.125 221.52702,115.25 C 216.02702,117.375 211.90202,121 211.90202,121 C 211.90202,121 208.90202,122.375 207.90202,122.75 C 206.90202,123.125 206.65202,123 206.65202,123 L 205.15202,121 L 202.52702,124.625 L 208.52702,124.75 L 210.90202,124.625 C 210.90202,124.625 211.90202,123.375 212.77702,123.375 C 213.36669,123.375 214.05944,123.375 214.71452,123.375 C 215.46869,122.87414 216.52702,123.5 216.52702,123.5 L 215.65202,123.375 C 215.65202,123.375 215.0315,123.375 214.71452,123.375 C 214.6544,123.41492 214.58239,123.44463 214.52702,123.5 C 213.77702,124.25 214.15202,124.625 212.77702,125.25 C 211.40202,125.875 210.77702,125.875 209.90202,126.375 C 209.02702,126.875 205.40202,126.625 208.27702,127.375 C 211.15202,128.125 212.77702,127.75 212.77702,127.75 C 212.77702,127.75 213.27702,128.125 212.15202,129.25 C 211.02702,130.375 212.90202,129.625 208.65202,133.375 C 204.40202,137.125 203.02702,140.25 201.90202,140.75 C 200.77702,141.25 200.15202,141.5 198.27702,143.5 C 196.40202,145.5 196.90202,146.625 196.40202,148.125 C 195.90202,149.625 194.77702,150.625 194.77702,148.75 C 194.77702,146.875 196.77702,145.875 194.40202,146.875 C 192.02702,147.875 192.65202,146.875 191.77702,148.5 C 190.90202,150.125 192.65202,150 190.90202,150.5 C 189.15202,151 189.02702,150.875 189.15202,151.375 C 189.27702,151.875 189.52702,152.625 189.52702,152.625 C 189.52702,152.625 188.90202,152.875 188.15202,152.625 C 187.40202,152.375 186.65202,151.875 186.65202,152.375 C 186.65202,152.875 187.40202,154.625 186.77702,155.625 C 186.15202,156.625 186.77702,157.125 185.77702,157 C 184.77702,156.875 185.15202,156.75 183.90202,156.75 C 182.65202,156.75 183.52702,155.875 182.40202,156.875 C 181.27702,157.875 183.65202,159.875 183.65202,159.875 C 183.65202,159.875 183.90202,160.375 182.90202,160.375 C 181.90202,160.375 180.77702,160.375 180.77702,160.375 L 178.77702,159.625 C 178.77702,159.625 179.52702,161 179.27702,161.75 C 179.02702,162.5 179.65202,163 178.27702,163.75 C 176.90202,164.5 179.52702,163.375 175.27702,165.125 C 171.02702,166.875 172.77702,169.125 172.02702,169.125 C 171.27702,169.125 170.65202,169.125 170.65202,169.125 C 170.65202,169.125 171.27702,170.375 169.65202,171.75 C 168.02702,173.125 169.02702,174.75 166.02702,175.875 C 163.02702,177 162.15202,178.75 162.15202,178.75 L 160.52702,180 C 160.52702,180 160.15202,182.25 159.90202,182.75 C 159.65202,183.25 158.65202,186.125 158.15202,187.125 C 157.65202,188.125 155.77702,192.5 155.27702,193.375 C 154.77702,194.25 155.77702,194 154.02702,195.625 C 152.27702,197.25 149.27702,199 149.27702,199 C 149.27702,199 148.90202,199.5 149.02702,199 C 149.15202,198.5 149.02702,195.25 149.02702,195.25 C 149.02702,195.25 148.77702,195.5 146.77702,197 C 144.77702,198.5 140.90202,202 139.77702,203 C 138.65202,204 137.52702,205.125 135.15202,207.625 C 132.77702,210.125 131.65202,211 129.27702,213.25 C 126.90202,215.5 123.40202,220.75 123.40202,220.75 C 123.40202,220.75 121.77702,225.375 119.52702,227.125 C 117.27702,228.875 114.65202,232 114.15202,232.875 C 113.65202,233.75 110.77702,239.5 109.40202,241.125 C 108.02702,242.75 105.40202,246.75 104.90202,247.875 C 104.40202,249 103.40202,250.625 101.90202,253.5 C 100.40202,256.375 98.52702,258.875 98.52702,260.75 C 98.52702,262.625 98.15202,273 98.15202,273 L 93.15202,284.125 C 93.15202,284.125 92.52702,289.25 91.65202,291 C 90.77702,292.75 90.52702,294 89.77702,295.125 C 89.02702,296.25 89.02702,299.625 89.02702,300.625 C 89.02702,301.625 88.27702,304.625 88.27702,304.625 L 85.40202,306 L 84.65202,306.5 C 84.65202,306.5 86.02702,319.25 85.52702,321 C 85.02702,322.75 84.65202,325 83.77702,326 C 83.16915,326.69471 83.59033,328.67395 83.90202,329.84375 C 85.87402,325.87801 88.05828,321.62868 90.46452,317.125 C 90.29053,317.16554 88.53303,317.55889 88.65202,316.25 C 88.77702,314.875 88.65202,312.25 89.15202,311.25 C 89.65202,310.25 90.15202,307.125 90.65202,306.125 C 91.15202,305.125 92.15202,303.25 92.40202,302.375 C 92.65202,301.5 92.40202,301.125 92.52702,298.375 C 92.65202,295.625 91.27702,296 92.77702,293.25 C 94.27702,290.5 95.27702,289.625 96.02702,288.25 C 96.77702,286.875 97.52702,285.5 97.52702,285.5 C 97.52702,285.5 100.02702,287.875 98.90202,289.875 C 97.77702,291.875 97.77702,291.75 96.02702,295.625 C 94.27702,299.5 93.65202,301 93.65202,302.375 C 93.65202,303.75 93.77702,305.875 93.27702,306.875 C 92.77702,307.875 92.02702,311.125 92.02702,311.625 C 92.02702,311.95735 91.74195,313.39964 91.77702,314.65625 C 118.64482,265.03569 171.1174,187.98004 252.80827,146.21875 C 252.17301,146.28055 251.90202,146.36481 251.90202,145.125 C 251.90202,143.375 250.90202,142.375 253.02702,142.375 C 255.15202,142.375 256.52702,142.5 257.02702,141.625 C 257.52702,140.75 258.02702,140.5 257.77702,139.875 C 257.52702,139.25 256.77702,139.875 256.77702,138.625 C 256.77702,137.375 256.77702,136.25 257.52702,135.5 C 258.27702,134.75 259.40202,134.25 259.40202,133.375 C 259.40202,132.5 259.52702,131.625 258.77702,131.5 C 258.02702,131.375 257.15202,131.125 257.15202,131.125 L 258.77702,130.625 C 258.77702,130.625 258.02702,130.25 257.27702,129.875 C 256.52702,129.5 256.15202,129.625 257.27702,129.375 C 258.40202,129.125 258.65202,127.875 259.90202,127.75 C 261.15202,127.625 264.52702,128.5 261.02702,127 C 257.52702,125.5 249.52702,125.625 251.15202,125.625 C 252.77702,125.625 254.90202,124.875 256.02702,124.875 C 257.12115,124.875 258.98488,125.11202 259.08952,125.125 C 258.93327,125.04688 258.52702,124.8125 257.52702,124.25 C 255.52702,123.125 256.40202,122.75 254.65202,122.5 C 252.90202,122.25 248.27702,124.375 251.77702,122.125 C 255.27702,119.875 258.15202,117.625 259.40202,116.375 C 260.65202,115.125 263.02702,113.75 264.52702,112 C 266.02702,110.25 266.15202,109.75 267.90202,108.625 C 269.65202,107.5 272.77702,106.125 273.40202,105.875 C 274.02702,105.625 275.02702,105.5 275.40202,105 C 275.77702,104.5 276.65202,103.375 276.02702,102.875 C 275.40202,102.375 273.77702,101.125 272.40202,100.25 C 271.37077,99.593749 271.40983,98.880859 270.58952,98.875 z M 274.90202,128.84375 C 274.50578,128.8584 274.1364,129 273.52702,129.375 C 271.90202,130.375 270.65202,130.375 270.77702,131.375 C 270.90202,132.375 270.90202,133.5 270.40202,133.625 C 269.90202,133.75 269.27702,134.125 268.90202,133.5 C 268.52702,132.875 268.77702,132.125 267.52702,132.125 C 266.27702,132.125 264.40202,132.625 265.40202,133.375 C 266.40202,134.125 267.02702,134.625 267.40202,135.5 C 267.77702,136.375 267.65202,137.25 267.90202,137.75 C 268.02702,138 268.3864,138.46875 268.46452,138.8125 C 269.96849,138.15886 271.47349,137.53518 272.99577,136.90625 C 274.63622,135.23627 275.66945,134.14243 275.65202,134.125 C 275.65202,133.375 275.15202,134.375 276.40202,132.875 C 277.65202,131.375 281.65202,131.125 280.65202,130.375 C 279.65202,129.625 281.15202,129.125 278.15202,129.125 C 276.27702,129.125 275.56242,128.81934 274.90202,128.84375 z M 262.55827,135.5 C 262.34733,135.5 262.0739,135.59375 261.65202,135.875 C 260.52702,136.625 259.02702,136.375 259.40202,137.75 C 259.77702,139.125 260.15202,139.875 259.65202,141 C 259.40633,141.5528 258.29868,142.87458 257.08952,144.0625 C 260.55935,142.36295 264.07882,140.72298 267.65202,139.15625 C 267.56618,139.13962 267.50548,139.15259 267.40202,139.125 C 265.52702,138.625 265.40202,138.625 265.02702,137.375 C 264.65202,136.125 264.52702,135.75 263.65202,135.75 C 263.10514,135.75 262.90983,135.5 262.55827,135.5 z M 236.52702,139.75 C 237.43522,139.76758 239.02702,140.46875 239.77702,140.75 C 240.77702,141.125 241.52702,140.875 242.90202,141 C 244.27702,141.125 244.02702,141.5 244.27702,142.5 C 244.52702,143.5 243.27702,143.875 243.27702,143.875 C 243.27702,143.875 240.15202,145.875 237.77702,146 C 235.40202,146.125 235.02702,146.5 231.90202,147.375 L 231.27702,147 C 231.27702,147 233.02702,145.125 235.40202,144.125 C 237.77702,143.125 238.15202,142.75 238.15202,142.75 C 238.15202,142.75 237.52702,142.25 235.02702,141.5 C 232.52702,140.75 235.52702,140.75 235.90202,140 C 235.99577,139.8125 236.22429,139.74414 236.52702,139.75 z M 222.65202,156.125 L 220.27702,160.375 C 220.27702,160.375 221.40202,160.875 222.02702,160.875 C 222.65202,160.875 224.77702,160.375 224.77702,160.375 C 224.77702,160.375 224.65202,160.875 223.27702,161.5 C 221.90202,162.125 223.65202,162.5 220.15202,163.375 C 216.65202,164.25 216.15202,165 214.40202,165 C 212.65202,165 211.15202,164.125 210.65202,163.875 C 209.40202,162.875 209.15202,163.25 209.15202,162.375 C 209.15202,161.5 212.52702,161.375 213.40202,161.375 C 214.27702,161.375 215.40202,161.75 216.65202,161.125 C 217.90202,160.5 218.15202,160.25 219.40202,159.5 C 220.65202,158.75 222.65202,156.125 222.65202,156.125 z "
     id="path2409" />
  <path
     style="fill:#516c1b;fill-opacity:1;fill-rule:evenodd;stroke:none;stroke-width:1px;stroke-linecap:butt;stroke-linejoin:miter;stroke-opacity:1"
     d="M 317.8445,556.69802 C 319.78904,556.07931 320.76131,556.60964 320.67293,555.28381 C 320.58454,553.95799 319.96582,552.80894 319.96582,552.80894 L 317.31417,556.52125 L 317.8445,556.69802 z "
     id="path1875" />
  <path
     style="fill:#516c1b;fill-opacity:1;fill-rule:evenodd;stroke:none;stroke-width:1px;stroke-linecap:butt;stroke-linejoin:miter;stroke-opacity:1"
     d="M 626.14306,285.3458 C 625.96628,283.22448 625.70111,282.69415 626.93855,282.69415 C 628.17599,282.69415 629.23665,283.22448 630.3857,282.2522 C 631.53474,281.27993 631.79991,280.39605 631.97669,281.27993 C 632.15346,282.16382 632.94896,282.87092 632.50702,283.8432 C 632.06508,284.81547 629.94375,285.87613 628.17599,285.78774 C 626.40822,285.69935 625.96628,285.69935 626.14306,285.3458 z "
     id="path2391" />
  <path
     style="fill:#516c1b;fill-opacity:1;fill-rule:evenodd;stroke:none;stroke-width:1px;stroke-linecap:butt;stroke-linejoin:miter;stroke-opacity:1"
     d="M 641.16907,272.70626 C 642.84845,273.85531 643.9975,275.88824 644.26267,274.20887 C 644.52783,272.52949 645.05816,271.38044 644.61622,269.96622 C 644.17428,268.55201 643.2904,267.1378 643.02523,266.78424 C 642.76007,266.43069 642.14135,266.07714 642.14135,266.07714 L 641.16907,272.70626 z "
     id="path2393" />
  <path
     style="fill:#516c1b;fill-opacity:1;fill-rule:evenodd;stroke:none;stroke-width:1px;stroke-linecap:butt;stroke-linejoin:miter;stroke-opacity:1"
     d="M 624.55207,274.65081 C 625.43595,274.91597 626.49661,275.62308 626.31983,274.38564 C 626.14306,273.1482 625.52434,272.52949 625.17078,272.52949 C 624.81723,272.52949 624.11012,272.52949 624.46368,273.41337 C 624.81723,274.29725 624.72884,274.7392 624.55207,274.65081 z "
     id="path2395" />
  <path
     style="fill:#516c1b;fill-opacity:1;fill-rule:evenodd;stroke:none;stroke-width:1px;stroke-linecap:butt;stroke-linejoin:miter;stroke-opacity:1"
     d="M 631.0928,274.29725 C 631.97669,275.09275 633.12574,275.4463 633.03735,275.00436 C 632.94896,274.56242 632.86057,275.35791 632.77218,274.03209 C 632.68379,272.70626 632.50702,272.4411 632.06508,272.4411 C 631.62313,272.4411 631.18119,274.38564 631.0928,274.29725 z "
     id="path2397" />
  <path
     style="fill:#516c1b;fill-opacity:1;fill-rule:evenodd;stroke:none;stroke-width:1px;stroke-linecap:butt;stroke-linejoin:miter;stroke-opacity:1"
     d="M 614.12224,260.50867 C 614.82935,260.77384 615.53645,261.12739 615.53645,260.77384 C 615.53645,260.42028 615.9784,260.50867 615.35968,259.80156 C 614.74096,259.09446 614.82935,258.47574 614.38741,259.00607 C 613.94546,259.5364 614.29902,260.59706 614.12224,260.50867 z "
     id="path2399" />
  <path
     style="fill:#747b67;fill-opacity:1;fill-rule:evenodd;stroke:none;stroke-width:1px;stroke-linecap:butt;stroke-linejoin:miter;stroke-opacity:1"
     d="M 344.27702,98.124999 C 345.77702,97.499999 347.02702,96.999999 347.65202,96.999999 C 348.27702,96.999999 348.65202,96.249999 349.77702,96.374999 C 350.90202,96.499999 352.52702,96.624999 352.40202,97.249999 C 352.27702,97.874999 352.27702,97.499999 351.77702,98.624999 C 351.27702,99.749999 348.90202,99.999999 348.27702,100.875 C 347.65202,101.75 346.40202,102.25 346.90202,102.625 C 347.40202,103 348.27702,102.75 349.40202,102.25 C 350.52702,101.75 351.77702,101 351.77702,101 C 351.77702,101 352.02702,100.625 352.52702,101.125 C 353.02702,101.625 353.02702,102.375 353.02702,102.375 L 355.02702,102.625 C 355.02702,102.625 354.77702,100.75 354.90202,99.874999 C 355.02702,98.999999 355.90202,96.249999 355.40202,95.624999 C 354.90202,94.999999 354.77702,93.874999 354.90202,93.374999 C 355.02702,92.874999 355.02702,91.874999 355.90202,91.874999 C 356.77702,91.874999 357.02702,92.874999 357.15202,91.499999 C 357.27702,90.124999 358.27702,90.624999 357.15202,89.874999 C 356.02702,89.124999 354.90202,88.624999 354.90202,88.624999 L 354.02702,88.249999 C 354.02702,88.249999 352.27702,89.249999 352.27702,89.749999 C 352.27702,90.249999 352.02702,92.374999 352.02702,92.374999 C 352.02702,92.374999 349.40202,93.124999 348.02702,94.374999 C 346.65202,95.624999 344.40202,98.374999 344.27702,98.124999 z "
     id="path2401" />
  <path
     style="fill:#747b67;fill-opacity:1;fill-rule:evenodd;stroke:none;stroke-width:1px;stroke-linecap:butt;stroke-linejoin:miter;stroke-opacity:1"
     d="M 424.70601,103.79613 C 426.73894,104.50324 425.94345,104.14968 428.41832,105.65229 C 430.8932,107.15489 432.3958,106.44778 432.48419,107.86199 C 432.57257,109.27621 432.21902,109.54137 431.86547,110.24848 C 431.51191,110.95559 432.66096,112.10464 432.66096,112.10464 C 432.66096,112.10464 433.72162,112.54658 431.42353,112.3698 C 429.12543,112.19302 428.41832,113.25368 428.24154,111.66269 C 428.06477,110.0717 428.15316,109.71815 428.15316,109.09943 C 428.15316,108.48071 428.5951,108.83427 427.7996,107.59683 C 427.00411,106.35939 424.17568,103.70774 424.17568,103.70774 L 424.70601,103.79613 z "
     id="path2403" />
  <path
     style="fill:#747b67;fill-opacity:1;fill-rule:evenodd;stroke:none;stroke-width:1px;stroke-linecap:butt;stroke-linejoin:miter;stroke-opacity:1"
     d="M 446.62632,104.7684 C 447.68698,104.68001 447.06826,103.97291 449.18958,104.68001 C 451.3109,105.38712 453.43222,106.71295 454.84644,108.03877 C 456.26065,109.3646 468.63502,113.69563 470.49118,114.49112 C 472.34733,115.28662 479.50679,118.02665 480.21389,118.02665 C 480.921,118.02665 484.19137,117.58471 484.89848,118.02665 C 485.60558,118.4686 487.28496,119.70603 486.84302,120.23636 C 486.40108,120.76669 483.48426,120.58992 482.33521,120.58992 C 481.18617,120.58992 479.94873,120.85508 479.59518,120.85508 C 479.24162,120.85508 465.27626,115.46339 462.713,114.22596 C 460.14974,112.98852 449.27797,107.24328 448.12892,106.271 C 446.97987,105.29873 446.62632,104.94518 446.62632,104.7684 z "
     id="path2405" />
  <path
     style="fill:#516c1b;fill-opacity:1;fill-rule:evenodd;stroke:none;stroke-width:1px;stroke-linecap:butt;stroke-linejoin:miter;stroke-opacity:1"
     d="M 494.62119,126.06999 C 496.21218,126.06999 497.18446,126.15838 497.6264,126.7771 C 498.06834,127.39582 499.04061,127.83776 498.24512,128.2797 C 497.44962,128.72164 497.6264,129.42875 496.1238,128.81003 C 494.62119,128.19131 494.00248,127.48421 494.00248,127.48421 L 495.15152,126.15838 L 494.62119,126.06999 z "
     id="path2407" />
  <path
     style="fill:#516c1b;fill-opacity:1;fill-rule:evenodd;stroke:none;stroke-width:1px;stroke-linecap:butt;stroke-linejoin:miter;stroke-opacity:1"
     d="M 267.15202,129.125 C 269.15202,129.375 270.90202,129.5 271.40202,129.375 C 271.90202,129.25 272.02702,128.625 272.90202,128.375 C 273.77702,128.125 276.02702,128.125 277.52702,128.125 C 279.02702,128.125 280.65202,128.375 281.52702,128.375 C 282.40202,128.375 282.77702,128.125 283.65202,127.625 C 284.52702,127.125 284.77702,127 284.65202,125.375 C 284.52702,123.75 284.90202,122.125 284.90202,122.125 C 284.90202,122.125 285.15202,121.25 283.02702,121.5 C 280.90202,121.75 281.40202,123.375 279.15202,123.375 C 276.90202,123.375 273.52702,123.375 272.65202,124.125 C 271.77702,124.875 270.65202,126.875 269.15202,127.625 C 267.65202,128.375 267.15202,129.5 267.15202,129.125 z "
     id="path2415" />
  <path
     style="fill:#516c1b;fill-opacity:1;fill-rule:evenodd;stroke:none;stroke-width:1px;stroke-linecap:butt;stroke-linejoin:miter;stroke-opacity:1"
     d="M 296.40202,119.125 C 294.77702,119.125 294.65202,120.375 292.52702,122 C 290.40202,123.625 291.65202,123.375 291.65202,123.375 C 291.65202,123.375 294.27702,122.125 297.02702,121 C 299.77702,119.875 299.65202,122 301.90202,122.125 C 304.15202,122.25 302.77702,122.375 303.90202,123 C 305.02702,123.625 300.27702,124.5 299.52702,124.25 C 298.77702,124 298.27702,123.25 297.65202,122.75 C 297.02702,122.25 295.77702,123 296.65202,125.125 C 297.52702,127.25 295.77702,126.25 295.77702,126.25 C 295.77702,126.25 295.40202,126 294.27702,124.75 C 293.15202,123.5 292.40202,124.375 291.40202,124.5 C 290.40202,124.625 291.27702,126.125 291.40202,127.125 L 292.58952,129.375 C 297.41193,127.58799 302.03312,125.89524 306.40202,124.34375 C 306.40488,124.31352 306.39902,124.27996 306.40202,124.25 C 306.52702,123 303.77702,121.875 303.15202,121.5 C 302.52702,121.125 300.65202,119.5 300.65202,119.5 C 300.65202,119.5 298.02702,119.125 296.40202,119.125 z "
     id="path2417" />
  <path
     style="fill:#516c1b;fill-opacity:1;fill-rule:evenodd;stroke:none;stroke-width:1px;stroke-linecap:butt;stroke-linejoin:miter;stroke-opacity:1"
     d="M 151.15202,195.75 C 151.15202,195.75 153.40202,194.125 153.40202,193.625 C 153.40202,193.125 158.40202,184.125 158.40202,184.125 L 159.52702,179.25 L 154.65202,186.375 L 150.27702,193.5 L 151.15202,195.75 z "
     id="path2419" />
  <path
     style="fill:#516c1b;fill-opacity:1;fill-rule:evenodd;stroke:none;stroke-width:1px;stroke-linecap:butt;stroke-linejoin:miter;stroke-opacity:1"
     d="M 166.90202,169.375 L 171.52702,166.375 L 174.65202,164.25 C 174.65202,164.25 174.15202,162.75 173.65202,162.75 C 173.15202,162.75 171.52702,164 171.52702,164 L 166.65202,170 L 166.90202,169.375 z "
     id="path2421" />
  <path
     style="fill:#516c1b;fill-opacity:1;fill-rule:evenodd;stroke:none;stroke-width:1px;stroke-linecap:butt;stroke-linejoin:miter;stroke-opacity:1"
     d="M 201.65202,129.25 L 204.15202,128.625 L 206.77702,127.75 L 203.65202,127.125 L 200.52702,128 L 201.65202,129.25 z "
     id="path2423" />
  <path
     style="fill:none;fill-opacity:0.75;fill-rule:evenodd;stroke:none;stroke-width:1px;stroke-linecap:butt;stroke-linejoin:miter;stroke-opacity:1"
     d="M 374.40202,115 L 374.33952,113.5 C 374.25696,113.48638 374.17202,113.45094 374.08952,113.4375 C 374.08001,113.43993 374.06778,113.43507 374.05827,113.4375 L 374.05827,114.59375 L 374.40202,115 z "
     id="path2862" />
  <path
     style="fill:url(#radialGradient3029);fill-opacity:1;fill-rule:evenodd;stroke:none;stroke-width:1px;stroke-linecap:butt;stroke-linejoin:miter;stroke-opacity:1"
     d="M 534.77702,457 L 371.74577,421.375 L 282.90202,482 L 281.90202,482.34375 C 281.88279,482.62917 281.85855,482.86942 281.83952,483.15625 C 289.55771,485.79897 316.06138,488.98407 341.87077,491.8125 C 367.68017,494.64092 406.94129,493.93015 441.58952,489.6875 C 476.23776,485.44486 501.15821,477.33023 534.74577,457.53125 C 534.74577,457.53125 534.77333,457.03395 534.77702,457 z "
     id="path2963" />
  <path
     style="fill:url(#radialGradient3037);fill-opacity:1;fill-rule:evenodd;stroke:none;stroke-width:1px;stroke-linecap:butt;stroke-linejoin:miter;stroke-opacity:1"
     d="M 373.33952,246.9375 L 371.90202,421.25 L 371.74577,421.375 L 534.77702,457 C 534.85054,456.32364 535.55404,449.3896 533.87077,435.25 C 532.103,420.40075 524.66792,380.81427 503.80827,345.8125 C 482.94862,310.81071 453.25859,286.05266 424.62077,268.375 C 397.14609,251.41532 375.71696,247.87253 373.33952,246.9375 z "
     id="path2958" />
  <path
     style="fill:url(#radialGradient3066);fill-opacity:1;fill-rule:evenodd;stroke:none;stroke-width:1px;stroke-linecap:butt;stroke-linejoin:miter;stroke-opacity:1"
     d="M 281.90202,482.34375 L 282.90202,482 L 371.90202,421.25 L 373.33952,246.9375 C 373.23887,246.89792 372.65022,246.78078 372.62077,246.75 C 371.89559,245.99221 323.40202,289.5 301.40202,368.5 C 292.53088,400.35546 285.48035,429.2245 281.90202,482.34375 z "
     id="path2884" />
  <path
     style="fill:#b12e00;fill-opacity:1;fill-rule:evenodd;stroke:none;stroke-width:1px;stroke-linecap:butt;stroke-linejoin:miter;stroke-opacity:1"
     d="M 122.24577,501.90625 L 151.15202,493.40625 C 150.34043,478.06312 154.95175,435.35577 166.12077,395.6875 C 181.05698,342.63955 235.29317,224.81946 321.46452,175.53125 C 342.98616,161.69074 353.48395,155.6478 373.38594,147.82858 C 373.79978,137.18232 373.50116,124.1827 373.46988,114.46431 C 372.83707,114.47212 371.87077,115.03125 370.21452,115.4375 C 368.55827,115.84375 366.28483,116.55469 363.21452,117.75 C 360.14421,118.94531 356.27702,120.625 351.40202,123 C 346.52702,125.375 339.95671,128.96875 332.30827,133.5625 C 328.48405,135.85938 324.38151,138.41797 320.08952,141.1875 C 315.79753,143.95703 311.3239,146.9375 306.71452,150.125 C 302.10514,153.3125 297.36589,156.69922 292.58952,160.25 C 287.81315,163.80078 283.00749,167.51562 278.21452,171.375 C 273.42155,175.23438 268.65495,179.23047 263.99577,183.34375 C 259.33659,187.45703 254.77702,191.6875 250.40202,196 C 246.02702,200.3125 241.52116,205.21289 236.96452,210.59375 C 232.40788,215.97461 227.81608,221.82031 223.21452,228 C 218.61296,234.17969 214.00554,240.69727 209.49577,247.40625 C 204.986,254.11523 200.55827,261.03125 196.27702,268 C 191.99577,274.96875 187.84929,282.00977 183.93327,288.96875 C 180.01725,295.92773 176.31608,302.82031 172.90202,309.5 C 169.48796,316.17969 166.36491,322.65039 163.58952,328.78125 C 160.81413,334.91211 158.40202,340.6875 156.40202,346 C 152.40202,356.625 148.50358,367.40625 144.83952,378.65625 C 143.00749,384.28125 141.2194,390.03906 139.52702,395.9375 C 137.83464,401.83594 136.23014,407.875 134.71452,414.125 C 133.1989,420.375 131.76628,426.82031 130.46452,433.5 C 129.16276,440.17969 127.98405,447.09375 126.93327,454.28125 C 125.88249,461.46875 124.97722,468.91406 124.21452,476.6875 C 123.45182,484.46094 122.83952,492.5625 122.40202,501 L 122.24577,501.90625 z "
     id="path2857"
     sodipodi:nodetypes="ccscccsssssssssssssssssssssssscc" />
  <path
     style="fill:#e76227;fill-opacity:1;fill-rule:evenodd;stroke:none;stroke-width:1px;stroke-linecap:butt;stroke-linejoin:miter;stroke-opacity:1"
     d="M 122.15202,502.375 L 122.40202,501 C 122.83952,492.5625 123.45182,484.46094 124.21452,476.6875 C 124.97722,468.91406 125.88249,461.46875 126.93327,454.28125 C 127.98405,447.09375 129.16276,440.17969 130.46452,433.5 C 131.76628,426.82031 133.1989,420.375 134.71452,414.125 C 136.23014,407.875 137.83464,401.83594 139.52702,395.9375 C 141.2194,390.03906 143.00749,384.28125 144.83952,378.65625 C 148.50358,367.40625 152.40202,356.625 156.40202,346 C 158.40202,340.6875 160.81413,334.91211 163.58952,328.78125 C 166.36491,322.65039 169.48796,316.17969 172.90202,309.5 C 176.31608,302.82031 180.01725,295.92773 183.93327,288.96875 C 187.84929,282.00977 191.99577,274.96875 196.27702,268 C 200.55827,261.03125 204.986,254.11523 209.49577,247.40625 C 214.00554,240.69727 218.61296,234.17969 223.21452,228 C 227.81608,221.82031 232.40788,215.97461 236.96452,210.59375 C 241.52116,205.21289 246.02702,200.3125 250.40202,196 C 254.77702,191.6875 259.33659,187.45703 263.99577,183.34375 C 268.65495,179.23047 273.42155,175.23438 278.21452,171.375 C 283.00749,167.51562 287.81315,163.80078 292.58952,160.25 C 297.36589,156.69922 302.10514,153.3125 306.71452,150.125 C 311.3239,146.9375 315.79753,143.95703 320.08952,141.1875 C 324.38151,138.41797 328.48405,135.85938 332.30827,133.5625 C 339.95671,128.96875 346.52702,125.375 351.40202,123 C 356.27702,120.625 360.14421,118.94531 363.21452,117.75 C 366.28483,116.55469 368.55827,115.84375 370.21452,115.4375 C 371.87077,115.03125 372.92546,114.91406 373.55827,114.90625 C 374.19108,114.89844 374.40202,115 374.40202,115 L 374.05827,114.59375 L 374.05827,113.4375 C 342.89842,121.39372 308.26801,137.86799 280.02702,152.75 C 180.82479,207.03386 121.70457,324.73613 105.93327,380.75 C 94.05897,422.92313 85.78254,467.74634 88.96452,483.65625 C 88.96451,483.65624 97.07855,490.92649 115.77702,499.59375 C 117.88477,500.57075 120.03007,501.43628 122.15202,502.375 z "
     id="path3329" />
  <path
     style="fill:none;fill-opacity:0.75;fill-rule:evenodd;stroke:none;stroke-width:1px;stroke-linecap:butt;stroke-linejoin:miter;stroke-opacity:1"
     d="M 730,489 C 728.66667,489 728.66667,489 730,489 z "
     id="path3339" />
  <path
     style="fill:none;fill-opacity:0.75;fill-rule:evenodd;stroke:none;stroke-width:1px;stroke-linecap:butt;stroke-linejoin:miter;stroke-opacity:1"
     d="M 228.5,507.5 C 228.5,507.33333 228.5,507.16667 228.5,507.5 z "
     id="path3347" />
  <path
     style="fill:#516c1b;fill-opacity:1;fill-rule:evenodd;stroke:none;stroke-width:1px;stroke-linecap:butt;stroke-linejoin:miter;stroke-opacity:1"
     d="M 362.55827,79.21875 C 332.15453,79.604298 302.69522,83.963532 274.68327,91.78125 L 275.65202,93.75 L 263.15202,97.5 L 264.15202,98.75 L 276.40202,95.25 C 276.40202,95.25 291.15202,91.999999 300.40202,89 C 309.65202,86 321.15202,84.749999 333.40202,82.25 C 345.65202,79.75 365.65202,81.249999 372.15202,81 C 378.65202,80.75 387.65202,81.499999 387.65202,81.5 L 389.65202,83.5 L 402.15202,82.5 L 403.65202,83 L 412.40202,85.5 L 407.90202,86 L 413.40202,87.75 L 413.90202,90.25 C 413.90202,90.25 410.65202,90.999999 409.40202,91 C 408.15202,91 410.90202,93.999999 410.90202,94 L 409.65202,95.5 L 410.90202,96 L 416.90202,95.25 L 417.65202,92.5 L 416.15202,91.25 L 416.40202,91 L 424.40202,90 L 441.65202,96.25 L 448.40202,96 L 455.15202,100.5 L 459.40202,100.5 L 461.40202,99 L 462.40202,100.5 L 466.65202,102.5 L 461.40202,104 C 461.40202,104 465.15202,104 466.15202,104 C 467.15202,104 468.40202,103.5 468.40202,103.5 L 470.15202,102.25 L 470.40202,103.5 L 467.90202,105 L 463.65202,106 L 467.90202,107 L 471.65202,107.75 L 476.90202,110.5 C 476.90202,110.5 480.15202,110.5 481.40202,110.5 C 482.65202,110.5 484.15202,111.5 484.15202,111.5 C 484.15202,111.5 487.65202,111.5 489.15202,111.5 C 490.65202,111.5 493.15202,112.5 493.15202,112.5 L 490.15202,113.75 L 488.65202,115 L 486.15202,117 L 486.90202,117 C 486.90202,117 487.90202,117 489.65202,116.75 C 491.40202,116.5 492.40202,117.25 492.40202,117.25 L 494.65202,119.5 L 498.65202,122.5 L 497.90202,124.5 C 497.90202,124.5 499.65202,126 501.40202,128 C 503.15202,130 503.65202,129.75 503.65202,129.75 L 507.90202,133 L 509.65202,134.75 L 506.90202,134.25 L 504.40202,131.75 L 501.15202,130.75 L 498.65202,132.5 C 498.65202,132.5 503.65202,135.25 506.65202,136.25 C 509.65202,137.25 509.65202,137.25 509.65202,137.25 L 510.15202,137.75 L 509.90202,138.75 L 511.90202,140.5 L 512.90202,142.75 C 512.90202,142.75 515.90202,144.25 517.90202,144.75 C 519.90202,145.25 519.65202,146.25 519.65202,146.25 L 515.90202,147.5 L 516.90202,149 L 520.90202,149 L 522.40202,150.25 C 522.40202,150.25 521.40202,151 519.15202,152 C 516.90202,153 513.65202,147.5 513.65202,147.5 L 503.90202,146.5 L 511.40202,144.5 L 510.40202,142.25 L 509.90202,141 L 508.15202,140 L 505.65202,138.75 L 503.40202,137.5 L 500.90202,137.5 L 496.15202,137.5 L 494.40202,138 L 493.40202,139 L 488.65202,139 L 488.90202,140.25 L 484.90202,141.75 L 486.15202,138.25 L 483.40202,138.25 L 478.15202,140 L 479.15202,143 L 479.40202,144.25 L 477.33952,146.84375 C 482.48605,149.84784 487.67386,152.99416 492.83952,156.3125 C 495.97491,158.32662 499.08624,160.38728 502.15202,162.5 L 502.15202,161.25 C 502.15202,161.25 501.40202,158.5 502.65202,157.5 C 503.90202,156.5 504.40202,157.25 507.90202,158.25 C 511.40202,159.25 511.90202,167.25 511.90202,167.25 L 525.90202,177.5 L 527.40202,177.5 L 530.90202,177.25 L 531.90202,170 L 534.15202,171 L 536.65202,169.75 L 536.65202,174 L 537.90202,175 L 534.90202,175.25 L 534.15202,180.75 L 545.15202,186.75 L 543.65202,188.5 L 539.15202,187.75 C 539.15202,187.75 545.15202,195.75 548.15202,197.25 C 551.15202,198.75 551.15202,199.75 549.65202,199.75 C 549.21128,199.75 548.70866,199.84758 548.21452,200 C 572.03532,222.61809 592.35893,247.45216 608.24577,271.6875 L 609.65202,271.25 L 609.90202,271.25 L 610.65202,273 L 611.40202,273 L 612.90202,271.5 L 615.90202,272.25 L 616.90202,272.75 L 616.65202,274.25 L 616.15202,274.25 C 616.15202,274.25 614.65202,274.75 614.15202,275.75 C 613.65202,276.75 615.90202,277 615.90202,277 L 617.40202,279.5 C 617.40202,279.5 618.90202,281 619.90202,281.25 C 620.90202,281.5 622.90202,279.75 622.90202,279.75 C 622.90202,279.75 620.40202,278.75 619.40202,278.25 C 618.40202,277.75 618.15202,276 618.15202,276 L 619.90202,275.75 L 618.40202,274.75 L 618.15202,272.5 L 619.90202,272.25 L 619.15202,270 L 614.65202,269.5 L 612.90202,265.25 C 612.90202,265.25 612.15202,265.25 611.15202,265 C 610.55139,264.84984 609.97347,263.3953 609.58952,262.21875 L 609.15202,262.25 L 609.15202,260.75 C 609.15202,260.75 609.33423,261.43644 609.58952,262.21875 L 612.15202,262 L 612.15202,260.5 L 609.90202,258.75 C 609.90202,258.75 610.15202,256 611.15202,255.25 C 612.15202,254.5 615.15202,255.25 615.15202,255.25 L 615.65202,250.25 L 618.15202,249.25 C 618.15202,249.25 619.15202,249.25 618.90202,251.25 C 618.65202,253.25 615.90202,255.5 615.90202,255.5 L 617.90202,261.75 L 621.15202,262.5 L 621.40202,263.5 L 623.90202,264.5 L 621.15202,266.5 L 625.15202,267.25 L 624.40202,268.5 L 627.90202,269.25 L 629.15202,271 L 629.90202,271 L 632.90202,271 L 635.65202,272.25 L 637.40202,269.5 L 635.15202,267.25 L 635.15202,265.5 L 637.15202,265.5 L 639.40202,266 C 639.40202,266 641.40202,265.5 641.65202,263.75 C 641.90202,262 639.40202,259.5 639.40202,259.5 L 640.90202,258.75 C 640.90202,258.75 646.15202,263.5 648.65202,269.25 C 651.15202,275 656.15202,288.75 656.15202,288.75 L 654.40202,290.25 L 650.65202,291.25 L 650.90202,298.75 C 650.90202,298.75 647.65202,299.25 646.15202,299.5 C 644.65202,299.75 639.90202,301.5 639.90202,301.5 L 639.65202,300.25 C 639.65202,300.25 639.15202,301.75 636.15202,301.75 C 633.15202,301.75 634.90202,300.5 633.65202,300.25 C 632.40202,300 631.15202,301 629.90202,304.75 C 629.8134,305.01585 629.79838,306.45169 629.80827,308.5 C 647.49414,342.07453 656.33827,369.7276 663.27702,407.3125 C 670.78823,447.9982 671.64679,479.17016 671.74577,485.8125 C 671.75861,486.6739 671.74577,487.21875 671.74577,487.21875 L 671.05827,487.15625 C 669.18506,490.03492 662.26928,497.44565 638.24577,507.71875 C 638.25338,508.91845 638.16319,510.12943 637.90202,511 C 637.15202,513.5 637.15202,514.5 640.15202,517.75 C 643.15202,521 647.15202,528.5 645.90202,530.75 C 644.65202,533 646.40202,531.5 647.65202,533.25 C 648.90202,535 650.90202,542.5 649.15202,544.75 C 647.40202,547 647.15202,546 647.15202,548.75 C 647.15202,551.5 648.65202,552.25 646.90202,557.5 C 645.15202,562.75 641.15202,569.5 639.40202,573.75 C 637.65202,578 632.40202,591 632.15202,593 C 631.90202,595 632.90202,609.75 632.90202,609.75 L 630.40202,615.75 L 623.90202,632.25 L 626.90202,639.5 L 629.46452,642.8125 C 676.58957,586.82434 706.16483,515.59977 709.62077,437.59375 C 708.94621,435.46454 708.26912,433.00647 708.15202,431.25 C 707.95691,428.32339 709.43684,417.03155 709.62077,407.21875 C 709.44508,403.12865 709.18869,399.05186 708.87077,395 C 708.8517,394.84559 708.85925,394.75156 708.83952,394.59375 C 707.16472,381.19531 703.15202,355.75 703.15202,355.75 L 703.65202,359.5 L 704.65202,373.25 L 701.90202,371.75 L 701.65202,366.5 L 700.15202,363 L 697.65202,359.5 L 695.90202,358.25 C 695.90202,358.25 692.40202,348.75 692.15202,345.5 C 691.90202,342.25 687.90202,342.75 687.90202,342.75 C 687.90202,342.75 683.65202,331.25 682.65202,329.5 C 681.65202,327.75 675.90202,325 675.90202,325 C 675.90202,325 676.40202,320.25 675.40202,319 C 674.40202,317.75 663.40202,305 663.40202,305 L 658.40202,299.5 C 658.40202,299.5 658.15202,298 659.65202,298 C 661.15202,298 663.90202,304.25 663.90202,304.25 L 665.90202,304.25 L 662.40202,296.75 L 664.40202,300 C 664.40202,300 667.65202,303.25 670.15202,305.25 C 672.65202,307.25 675.40202,313.75 675.40202,313.75 C 675.40202,313.75 679.65202,317 681.65202,318.75 C 683.65202,320.5 685.90202,329.25 685.90202,329.25 L 688.90202,332 C 688.90202,332 690.40202,335.5 694.40202,340 C 698.40202,344.5 700.90202,359.25 700.90202,359.25 L 701.40202,357.75 C 701.40202,357.75 700.65106,346.60837 699.43327,337.59375 C 694.53673,318.31033 688.00569,299.67001 679.99577,281.84375 C 679.86842,281.57155 679.71113,281.19679 679.58952,280.9375 C 679.31849,280.33898 679.02013,279.75293 678.74577,279.15625 C 677.46452,276.4375 676.65202,274.75 676.65202,274.75 C 676.65202,274.75 676.62374,274.64239 676.62077,274.625 C 621.42799,159.08979 503.49635,79.218749 366.99577,79.21875 C 365.51673,79.21875 364.0329,79.20005 362.55827,79.21875 z M 601.08952,172.28125 C 601.12308,172.2678 601.17061,172.27616 601.21452,172.28125 C 601.53389,172.31826 602.14092,172.87982 603.24577,174.34375 C 606.78131,179.02833 610.336,182.02329 611.30827,183.4375 C 612.28056,184.85171 613.68587,186.0723 612.18327,185.71875 C 610.68064,185.3652 601.30827,175.90625 601.30827,175.90625 L 600.96452,175.46875 C 601.1924,174.67118 600.58612,172.48295 601.08952,172.28125 z M 603.77702,184.65625 C 605.01446,184.65626 611.72081,190.32506 612.33952,191.5625 C 612.95824,192.79993 613.7735,194.93398 614.74577,195.90625 C 615.71805,196.87852 616.87077,199.4375 616.87077,199.4375 C 616.87076,199.43749 621.02794,203.57323 621.55827,203.75 C 622.0886,203.92678 625.77702,204.21875 625.77702,204.21875 L 630.65202,207.65625 L 631.62077,209.9375 C 631.62075,209.93749 638.50833,217.1224 639.74577,218.625 C 640.98321,220.12761 644.71008,223.54917 645.15202,224.875 C 645.59398,226.20082 645.04754,228.96431 644.87077,229.40625 C 644.69399,229.84819 643.81716,230.36963 642.93327,230.28125 C 642.04942,230.19286 641.68771,230.63833 641.24577,229.3125 C 640.8038,227.98667 630.64574,215.59819 630.02702,215.15625 C 629.40829,214.71431 620.47968,208.88481 620.21452,208.53125 C 619.94934,208.1777 613.31272,203.86428 612.87077,203.6875 C 612.42882,203.51073 606.96452,193.0723 606.96452,192.71875 C 606.96455,192.3652 603.76629,186.96875 603.58952,186.96875 C 603.5895,185.28937 602.53959,184.65625 603.77702,184.65625 z M 601.83952,207.5625 C 601.83952,207.5625 606.95472,212.60539 607.30827,213.3125 C 607.66182,214.01961 608.54309,217.03217 608.80827,217.5625 C 609.07343,218.09283 610.86017,218.08394 613.77702,218.4375 C 616.69383,218.79105 622.94674,222.13312 624.71452,223.8125 C 626.48229,225.49188 627.55294,230.17954 627.46452,231.59375 C 627.37613,233.00797 624.81808,234.875 624.46452,234.875 C 624.11096,234.875 620.40465,235.32414 618.90202,236.03125 C 617.39942,236.73836 618.97615,242.83042 619.68327,244.15625 C 620.39037,245.48207 618.35377,245.82416 617.55827,246.53125 C 616.76277,247.23836 614.91444,247.70081 613.05827,246.375 C 611.20211,245.04917 603.25279,233.10784 601.30827,229.21875 C 599.36373,225.32966 599.10818,224.5222 597.87077,222.3125 C 596.63334,220.1028 598.2243,220.28829 597.87077,218.34375 C 597.51722,216.39921 598.57974,219.68842 598.93327,220.21875 C 599.28683,220.74908 599.89221,220.64109 600.24577,220.90625 C 600.59932,221.17142 601.30825,220.71874 601.30827,220.71875 L 601.55827,218.96875 C 601.55827,218.96875 602.62706,219.48484 603.24577,219.75 C 603.86449,220.01517 603.2556,220.64738 602.90202,221.53125 C 602.54847,222.41513 603.17344,223.81787 603.52702,223.90625 C 603.88057,223.99463 604.56989,223.04641 605.27702,222.78125 C 605.98412,222.51608 606.26276,223.11076 607.05827,223.90625 C 607.85377,224.70174 607.86187,226.02681 608.74577,226.46875 C 609.62965,226.91069 609.08953,226.12945 609.08952,225.6875 C 609.08952,225.24556 609.08862,223.6437 608.55827,222.40625 C 608.02794,221.16882 608.72524,220.83655 608.90202,219.6875 C 609.07879,218.53846 608.98949,217.89017 608.37077,217.625 C 607.75205,217.35984 607.48414,219.13036 606.77702,219.21875 C 606.06991,219.30714 605.09839,218.96247 604.21452,218.34375 C 603.33063,217.72503 601.65203,217.46875 601.65202,217.46875 C 601.65202,217.46875 602.96987,215.78477 603.05827,214.8125 C 603.14666,213.84022 602.19842,209.86152 601.93327,208.09375 L 601.83952,207.5625 z "
     id="path2381" />
  <path
     style="fill:#973d18;fill-opacity:1;fill-rule:evenodd;stroke:none;stroke-width:2;stroke-linecap:butt;stroke-linejoin:miter;stroke-miterlimit:4;stroke-dasharray:none;stroke-opacity:1"
     d="M 659.90202,484.34375 L 671.74577,486.9375 C 671.74865,486.77045 671.75604,486.50162 671.74577,485.8125 C 671.64679,479.17016 670.78823,447.9982 663.27702,407.3125 C 654.79174,361.35056 643.4596,330.25483 616.58952,285 C 589.71947,239.74517 546.22607,190.60718 492.83952,156.3125 C 442.68362,124.09315 391.71929,106.73774 374.80827,104.1875 L 374.65202,113.5625 C 412.13855,119.83998 454.99621,144.31102 488.58952,163.375 C 534.47144,193.19617 572.75745,230.90146 609.52702,294.1875 C 635.96708,339.69491 647.72921,370.53807 656.21452,416.5 C 663.72573,457.1857 661.05307,475.6389 661.15202,482.28125 C 661.16486,483.14265 661.15205,483.68749 661.15202,483.6875 L 660.46452,483.625 C 660.36468,483.77843 660.02167,484.16293 659.90202,484.34375 z "
     id="path2826" />
  <g
     id="g3270"
     transform="translate(2.8284271,0)">
    <path
       sodipodi:nodetypes="ccc"
       id="path3250"
       d="M 791.9596,728.3482 L 393.15137,415.807 L 393.15137,415.807"
       style="fill:none;fill-opacity:0.75;fill-rule:evenodd;stroke:#000000;stroke-width:3;stroke-linecap:butt;stroke-linejoin:miter;stroke-miterlimit:4;stroke-dasharray:none;stroke-opacity:1" />
    <path
       sodipodi:nodetypes="cc"
       id="path3252"
       d="M 794.78802,605.31161 L 461.03362,369.13795"
       style="fill:none;fill-opacity:0.75;fill-rule:evenodd;stroke:#000000;stroke-width:3;stroke-linecap:butt;stroke-linejoin:miter;stroke-miterlimit:4;stroke-dasharray:none;stroke-opacity:1" />
    <path
       sodipodi:nodetypes="cc"
       id="path3254"
       d="M 791.95959,459.64762 L 522.6843,326.40694"
       style="fill:none;fill-opacity:0.75;fill-rule:evenodd;stroke:#000000;stroke-width:3;stroke-linecap:butt;stroke-linejoin:miter;stroke-miterlimit:4;stroke-dasharray:none;stroke-opacity:1" />
    <path
       sodipodi:nodetypes="ccc"
       id="path3256"
       d="M 784.88853,336.61105 L 586.89863,287.11357 L 586.89863,287.11357"
       style="fill:none;fill-opacity:0.75;fill-rule:evenodd;stroke:#000000;stroke-width:3;stroke-linecap:butt;stroke-linejoin:miter;stroke-miterlimit:4;stroke-dasharray:none;stroke-opacity:1" />
    <path
       sodipodi:nodetypes="cc"
       id="path3258"
       d="M 794.78803,210.74603 L 579.82756,243.27294"
       style="fill:none;fill-opacity:0.75;fill-rule:evenodd;stroke:#000000;stroke-width:3;stroke-linecap:butt;stroke-linejoin:miter;stroke-miterlimit:4;stroke-dasharray:none;stroke-opacity:1" />
    <path
       id="path3268"
       d="M 797.61645,73.567317 L 568.51385,203.67496"
       style="fill:none;fill-opacity:0.75;fill-rule:evenodd;stroke:#000000;stroke-width:3;stroke-linecap:butt;stroke-linejoin:miter;stroke-miterlimit:4;stroke-dasharray:none;stroke-opacity:1" />
  </g>
  <g
     id="g3245"
     transform="translate(8.4852813,65.053824)">
    <path
       transform="matrix(0.8275906,0,0,0.8275906,136.29744,114.35817)"
       d="M 847.11395 663.29437 A 56.568542 56.568542 0 1 1  733.97687,663.29437 A 56.568542 56.568542 0 1 1  847.11395 663.29437 z"
       sodipodi:ry="56.568542"
       sodipodi:rx="56.568542"
       sodipodi:cy="663.29437"
       sodipodi:cx="790.54541"
       id="path2228"
       style="opacity:1;fill:#ffffff;fill-opacity:1;fill-rule:nonzero;stroke:#ffffff;stroke-width:1.70000005;stroke-linecap:butt;stroke-miterlimit:4;stroke-dasharray:none;stroke-dashoffset:0;stroke-opacity:1"
       sodipodi:type="arc" />
    <text
       id="text2224"
       y="685.5318"
       x="769.31061"
       style="font-size:67.72781372px;font-style:normal;font-weight:normal;fill:#000000;fill-opacity:1;stroke:none;stroke-width:1px;stroke-linecap:butt;stroke-linejoin:miter;stroke-opacity:1;font-family:Bitstream Vera Sans"
       xml:space="preserve"><tspan
         y="685.5318"
         x="769.31061"
         id="tspan2226"
         sodipodi:role="line">1</tspan></text>
  </g>
  <g
     id="g3240"
     transform="translate(8.4852813,70.144995)">
    <path
       sodipodi:type="arc"
       style="opacity:1;fill:#ffffff;fill-opacity:1;fill-rule:nonzero;stroke:#ffffff;stroke-width:1.70000005;stroke-linecap:butt;stroke-miterlimit:4;stroke-dasharray:none;stroke-dashoffset:0;stroke-opacity:1"
       id="path3201"
       sodipodi:cx="790.54541"
       sodipodi:cy="663.29437"
       sodipodi:rx="56.568542"
       sodipodi:ry="56.568542"
       d="M 847.11395 663.29437 A 56.568542 56.568542 0 1 1  733.97687,663.29437 A 56.568542 56.568542 0 1 1  847.11395 663.29437 z"
       transform="matrix(0.8275906,0,0,0.8275906,136.29744,-21.406332)" />
    <text
       xml:space="preserve"
       style="font-size:67.72781372px;font-style:normal;font-weight:normal;fill:#000000;fill-opacity:1;stroke:none;stroke-width:1px;stroke-linecap:butt;stroke-linejoin:miter;stroke-opacity:1;font-family:Bitstream Vera Sans"
       x="769.31061"
       y="549.76727"
       id="text3203"><tspan
         sodipodi:role="line"
         id="tspan3205"
         x="769.31061"
         y="549.76727">2</tspan></text>
  </g>
  <g
     id="g3235"
     transform="translate(8.4852813,75.236136)">
    <path
       transform="matrix(0.8275906,0,0,0.8275906,136.29744,-157.17083)"
       d="M 847.11395 663.29437 A 56.568542 56.568542 0 1 1  733.97687,663.29437 A 56.568542 56.568542 0 1 1  847.11395 663.29437 z"
       sodipodi:ry="56.568542"
       sodipodi:rx="56.568542"
       sodipodi:cy="663.29437"
       sodipodi:cx="790.54541"
       id="path3207"
       style="opacity:1;fill:#ffffff;fill-opacity:1;fill-rule:nonzero;stroke:#ffffff;stroke-width:1.70000005;stroke-linecap:butt;stroke-miterlimit:4;stroke-dasharray:none;stroke-dashoffset:0;stroke-opacity:1"
       sodipodi:type="arc" />
    <text
       id="text3209"
       y="414.00278"
       x="769.31061"
       style="font-size:67.72781372px;font-style:normal;font-weight:normal;fill:#000000;fill-opacity:1;stroke:none;stroke-width:1px;stroke-linecap:butt;stroke-linejoin:miter;stroke-opacity:1;font-family:Bitstream Vera Sans"
       xml:space="preserve"><tspan
         y="414.00278"
         x="769.31061"
         id="tspan3211"
         sodipodi:role="line">3</tspan></text>
  </g>
  <g
     id="g3230"
     transform="translate(8.4852813,83.155738)">
    <path
       sodipodi:type="arc"
       style="opacity:1;fill:#ffffff;fill-opacity:1;fill-rule:nonzero;stroke:#ffffff;stroke-width:1.70000005;stroke-linecap:butt;stroke-miterlimit:4;stroke-dasharray:none;stroke-dashoffset:0;stroke-opacity:1"
       id="path3213"
       sodipodi:cx="790.54541"
       sodipodi:cy="663.29437"
       sodipodi:rx="56.568542"
       sodipodi:ry="56.568542"
       d="M 847.11395 663.29437 A 56.568542 56.568542 0 1 1  733.97687,663.29437 A 56.568542 56.568542 0 1 1  847.11395 663.29437 z"
       transform="matrix(0.8275906,0,0,0.8275906,136.29744,-295.76376)" />
    <text
       xml:space="preserve"
       style="font-size:67.72781372px;font-style:normal;font-weight:normal;fill:#000000;fill-opacity:1;stroke:none;stroke-width:1px;stroke-linecap:butt;stroke-linejoin:miter;stroke-opacity:1;font-family:Bitstream Vera Sans"
       x="769.31061"
       y="275.40985"
       id="text3215"><tspan
         sodipodi:role="line"
         id="tspan3217"
         x="769.31061"
         y="275.40985">4</tspan></text>
  </g>
  <g
     id="g3225"
     transform="translate(8.4852813,64.205252)">
    <path
       transform="matrix(0.8275906,0,0,0.8275906,136.29744,-407.48663)"
       d="M 847.11395 663.29437 A 56.568542 56.568542 0 1 1  733.97687,663.29437 A 56.568542 56.568542 0 1 1  847.11395 663.29437 z"
       sodipodi:ry="56.568542"
       sodipodi:rx="56.568542"
       sodipodi:cy="663.29437"
       sodipodi:cx="790.54541"
       id="path3219"
       style="opacity:1;fill:#ffffff;fill-opacity:1;fill-rule:nonzero;stroke:#ffffff;stroke-width:1.70000005;stroke-linecap:butt;stroke-miterlimit:4;stroke-dasharray:none;stroke-dashoffset:0;stroke-opacity:1"
       sodipodi:type="arc" />
    <text
       id="text3221"
       y="163.68698"
       x="769.31061"
       style="font-size:67.72781372px;font-style:normal;font-weight:normal;fill:#000000;fill-opacity:1;stroke:none;stroke-width:1px;stroke-linecap:butt;stroke-linejoin:miter;stroke-opacity:1;font-family:Bitstream Vera Sans"
       xml:space="preserve"><tspan
         y="163.68698"
         x="769.31061"
         id="tspan3223"
         sodipodi:role="line">5</tspan></text>
  </g>
  <g
     transform="translate(8.4852813,-66.468102)"
     id="g3260">
    <path
       sodipodi:type="arc"
       style="opacity:1;fill:#ffffff;fill-opacity:1;fill-rule:nonzero;stroke:#ffffff;stroke-width:1.70000005;stroke-linecap:butt;stroke-miterlimit:4;stroke-dasharray:none;stroke-dashoffset:0;stroke-opacity:1"
       id="path3262"
       sodipodi:cx="790.54541"
       sodipodi:cy="663.29437"
       sodipodi:rx="56.568542"
       sodipodi:ry="56.568542"
       d="M 847.11395 663.29437 A 56.568542 56.568542 0 1 1  733.97687,663.29437 A 56.568542 56.568542 0 1 1  847.11395 663.29437 z"
       transform="matrix(0.8275906,0,0,0.8275906,136.29744,-407.48663)" />
    <text
       xml:space="preserve"
       style="font-size:67.72781372px;font-style:normal;font-weight:normal;fill:#000000;fill-opacity:1;stroke:none;stroke-width:1px;stroke-linecap:butt;stroke-linejoin:miter;stroke-opacity:1;font-family:Bitstream Vera Sans"
       x="769.31061"
       y="163.68698"
       id="text3264"><tspan
         sodipodi:role="line"
         id="tspan3266"
         x="769.31061"
         y="163.68698">6</tspan></text>
  </g>
</svg>
